<svg width="78" height="61" viewBox="0 0 78 61" fill="none" xmlns="http://www.w3.org/2000/svg">
<g filter="url(#filter0_n_766_3942)">
<path d="M46.2886 4.3272C46.5346 4.48609 47.2564 5.23886 47.4286 5.51295C47.9022 6.26769 47.6275 7.07011 47.9022 7.82486C48.5953 9.72563 51.6339 9.33634 53.3173 9.71768C54.0821 9.89048 55.6568 10.391 56.2822 10.8101C58.7365 12.4546 56.4278 14.4686 57.5186 16.1648C58.2629 17.3247 59.0933 16.9096 60.1041 17.2195C61.115 17.5293 63.6021 18.5542 63.4339 19.7777C63.0997 22.2187 58.7447 22.2087 56.8788 22.7132C55.3349 23.7917 57.2705 25.1761 57.1762 25.762C57.1064 26.2049 56.2145 27.2358 55.7593 27.3867C55.2775 27.5456 53.2784 27.6687 52.6079 27.7025C50.6887 27.7998 47.7895 27.3946 46.063 27.7025C45.2921 27.8395 43.8425 29.1842 44.0496 30.0184C44.6708 31.369 47.7341 29.6311 46.5674 32.9222C46.7786 33.7027 49.5487 33.0711 50.3381 33.0513C50.8692 33.0394 54.5681 33.0274 54.7526 33.1466C55.9992 34.8607 53.5798 35.6412 52.9052 36.9243C53.0385 37.1527 53.2189 37.1468 53.426 37.2163C55.0581 37.7625 59.7494 38.0902 59.4459 40.4835C59.1507 42.8173 56.5098 42.8034 55.0478 44.1739C52.1117 46.9247 57.1844 46.1839 58.7303 46.3666C60.9899 46.6308 63.1387 47.5384 65.3859 47.8721C66.3435 48.5792 66.1364 50.6607 67.0324 51.2168C67.4363 51.4671 68.117 51.3777 68.5189 51.5684C68.8121 51.7074 68.8121 52.0788 69.0069 52.1245C69.7984 52.3132 71.0245 52.1146 71.7442 52.2357C74.7029 52.7303 76.3083 55.9181 73.1569 57.1853C70.0054 58.4525 64.088 57.3064 60.5757 57.6818C57.3709 58.0235 55.9459 59.1556 51.9764 59.0821C41.423 58.8874 30.843 58.5836 20.2855 58.2717C16.4472 58.1585 12.453 58.1824 8.63522 58.2976C6.56432 58.3611 4.39296 59.2032 2.47789 57.8824C1.19845 57.0006 0.544376 53.7174 1.04877 52.3211C1.79101 50.2694 4.40526 49.7073 5.52272 47.3319C6.02712 46.2593 5.96561 45.0637 6.32853 43.9415C7.58747 40.0446 9.96592 38.8688 9.18267 34.0861C8.47528 29.7741 6.36543 26.0401 6.16655 21.4381C6.04147 18.5204 7.33527 14.5302 5.04498 12.0892C3.39442 10.3294 1.24561 10.7346 0.390597 7.86855C-0.505424 4.86545 -0.0399849 2.26555 3.69788 2.06097C4.55904 2.01331 5.20901 2.26356 5.94715 2.27548C9.79369 2.33109 13.5746 1.95571 17.4027 1.86236C25.8072 1.65579 36.8547 0.65079 44.677 3.60026C45.1055 3.76114 45.938 4.0968 46.2886 4.32323V4.3272ZM23.3201 17.2393C21.8725 19.3665 21.2267 22.1452 23.5436 23.9248C26.6971 26.3459 31.9605 24.2247 33.1251 20.7032C33.7094 18.9355 33.5393 16.0357 31.5401 15.1677C28.7475 13.9542 25.026 14.7348 23.3201 17.2393ZM35.8685 36.4814C35.1878 36.1735 30.2689 36.1596 29.3032 36.2589C24.2223 36.7853 18.4689 40.1558 17.7369 45.4867C17.3432 48.3548 18.4033 48.7063 21.0913 48.5454C24.2592 48.3548 27.5624 47.747 30.7364 47.4888C34.4927 47.1849 37.9681 47.9694 39.918 44.1818C42.2309 39.6891 40.1559 38.3583 36.0817 36.8151C35.9423 36.7614 35.9259 36.5052 35.8706 36.4794L35.8685 36.4814Z" fill="#DF4739"/>
</g>
<g filter="url(#filter1_n_766_3942)">
<path d="M48.6154 2.93031C48.8655 3.09681 49.5993 3.88561 49.7744 4.17282C50.256 4.9637 49.9767 5.80453 50.256 6.59541C50.9606 8.58717 54.05 8.17924 55.7615 8.57885C56.5391 8.75992 58.1401 9.28439 58.7759 9.72354C61.2712 11.4468 58.9239 13.5572 60.0329 15.3346C60.7897 16.5501 61.6339 16.1151 62.6617 16.4398C63.6894 16.7644 66.218 17.8384 66.0471 19.1204C65.7073 21.6783 61.2795 21.6679 59.3825 22.1965C57.8128 23.3266 59.7807 24.7773 59.6848 25.3913C59.6139 25.8554 58.7071 26.9355 58.2443 27.0937C57.7544 27.2602 55.7219 27.3893 55.0402 27.4246C53.089 27.5266 50.1413 27.102 48.3861 27.4246C47.6023 27.5682 46.1284 28.9773 46.339 29.8514C46.9706 31.2666 50.0851 29.4455 48.8989 32.8942C49.1136 33.7121 51.93 33.0503 52.7325 33.0295C53.2725 33.017 57.0331 33.0045 57.2208 33.1294C58.4882 34.9255 56.0283 35.7434 55.3425 37.0879C55.478 37.3273 55.6615 37.321 55.872 37.3939C57.5314 37.9662 62.301 38.3096 61.9925 40.8175C61.6923 43.263 59.0073 43.2484 57.521 44.6845C54.5358 47.5671 59.6931 46.7907 61.265 46.9822C63.5622 47.259 65.7469 48.2102 68.0317 48.5598C69.0052 49.3008 68.7947 51.4819 69.7056 52.0647C70.1163 52.3269 70.8084 52.2332 71.217 52.433C71.5151 52.5787 71.5151 52.9679 71.7131 53.0158C72.5178 53.2135 73.7644 53.0054 74.4961 53.1323C77.5043 53.6506 79.1365 56.991 75.9324 58.3188C72.7284 59.6467 66.7121 58.4458 63.1411 58.8392C59.8828 59.1971 58.434 60.3835 54.3982 60.3064C43.6685 60.1025 32.9118 59.784 22.178 59.4573C18.2756 59.3387 14.2147 59.3636 10.3331 59.4843C8.22767 59.5509 6.02004 60.4334 4.07299 59.0494C2.77218 58.1253 2.10718 54.685 2.62 53.2218C3.37464 51.0719 6.03255 50.4829 7.16867 47.9937C7.68149 46.8698 7.61895 45.6169 7.98793 44.441C9.2679 40.3576 11.6861 39.1255 10.8897 34.1138C10.1705 29.5954 8.02546 25.6826 7.82325 20.8604C7.69609 17.803 9.01149 13.6217 6.68295 11.0639C5.00482 9.21988 2.82012 9.64445 1.95083 6.64119C1.03985 3.49433 1.51306 0.769965 5.31335 0.555595C6.18889 0.505645 6.84972 0.767883 7.60019 0.780371C11.511 0.838646 15.355 0.445289 19.247 0.34747C27.792 0.131019 39.024 -0.922098 46.9769 2.16857C47.4126 2.33715 48.2589 2.68889 48.6154 2.92615V2.93031ZM25.2633 16.4606C23.7916 18.6896 23.1349 21.6013 25.4905 23.4661C28.6967 26.0031 34.048 23.7804 35.232 20.0903C35.8262 18.238 35.6531 15.1993 33.6206 14.2898C30.7813 13.0182 26.9977 13.8361 25.2633 16.4606ZM38.0213 36.6238C37.3292 36.3012 32.3281 36.2866 31.3463 36.3907C26.1805 36.9422 20.3311 40.4741 19.5868 46.0602C19.1866 49.0656 20.2644 49.4339 22.9973 49.2654C26.2181 49.0656 29.5764 48.4287 32.8034 48.1581C36.6225 47.8397 40.1559 48.6618 42.1384 44.6928C44.4899 39.985 42.3802 38.5906 38.2381 36.9735C38.0963 36.9173 38.0796 36.6488 38.0234 36.6217L38.0213 36.6238Z" fill="#3D59B0" fill-opacity="0.77"/>
</g>
<g filter="url(#filter2_n_766_3942)">
<path d="M46.8867 4.3272C47.1276 4.4861 47.8343 5.23886 48.0029 5.51295C48.4666 6.26769 48.1976 7.07011 48.4666 7.82486C49.1452 9.72563 52.1204 9.33634 53.7687 9.71768C54.5175 9.89048 56.0593 10.391 56.6716 10.8101C59.0747 12.4546 56.8142 14.4686 57.8822 16.1648C58.611 17.3247 59.424 16.9096 60.4138 17.2195C61.4035 17.5293 63.8387 18.5542 63.6741 19.7777C63.3469 22.2187 59.0827 22.2087 57.2558 22.7132C55.7441 23.7917 57.6393 25.1761 57.547 25.762C57.4787 26.2049 56.6054 27.2358 56.1597 27.3867C55.6879 27.5456 53.7305 27.6687 53.0741 27.7025C51.195 27.7998 48.3562 27.3946 46.6658 27.7025C45.911 27.8396 44.4916 29.1842 44.6944 30.0184C45.3027 31.369 48.302 29.6311 47.1597 32.9222C47.3665 33.7027 50.0787 33.0711 50.8517 33.0513C51.3716 33.0394 54.9933 33.0274 55.174 33.1466C56.3946 34.8607 54.0256 35.6412 53.3651 36.9243C53.4956 37.1527 53.6723 37.1468 53.8751 37.2163C55.4731 37.7625 60.0665 38.0902 59.7693 40.4835C59.4803 42.8173 56.8945 42.8034 55.4631 44.1739C52.5882 46.9247 57.555 46.1839 59.0687 46.3666C61.2811 46.6308 63.385 47.5384 65.5853 47.8721C66.5229 48.5792 66.3201 50.6607 67.1974 51.2168C67.5929 51.4671 68.2594 51.3777 68.6529 51.5684C68.94 51.7074 68.94 52.0788 69.1307 52.1245C69.9056 52.3132 71.1062 52.1146 71.8108 52.2357C74.7078 52.7303 76.2797 55.9181 73.1941 57.1853C70.1084 58.4525 64.3145 57.3065 60.8755 57.6818C57.7377 58.0235 56.3424 59.1556 52.4557 59.0821C42.1227 58.8874 31.7635 58.5836 21.4265 58.2717C17.6683 58.1585 13.7575 58.1824 10.0194 58.2976C7.99173 58.3611 5.8657 59.2032 3.99062 57.8824C2.73788 57.0006 2.09746 53.7174 2.59133 52.3212C3.31808 50.2694 5.87775 49.7073 6.97188 47.3319C7.46575 46.2593 7.40552 45.0637 7.76086 43.9415C8.99352 40.0446 11.3223 38.8688 10.5554 34.0861C9.8628 29.7741 7.797 26.0401 7.60226 21.4381C7.4798 18.5204 8.74658 14.5302 6.50411 12.0892C4.88801 10.3294 2.78406 10.7346 1.9469 7.86855C1.06958 4.86545 1.5253 2.26555 5.18513 2.06097C6.02832 2.01331 6.66472 2.26356 7.38745 2.27548C11.1537 2.33109 14.8557 1.95571 18.6038 1.86236C26.8329 1.65579 37.6498 0.65079 45.3087 3.60026C45.7283 3.76114 46.5434 4.0968 46.8867 4.32323V4.3272ZM24.3977 17.2393C22.9804 19.3665 22.1291 23.8317 24.3977 25.6113C27.4854 28.0325 33.7196 24.4923 34.86 20.9708C35.4321 19.2031 35.9631 15.4863 34.0057 14.6183C31.2713 13.4048 26.068 14.7348 24.3977 17.2393ZM36.6841 36.4814C36.0176 36.1735 31.2014 36.1596 30.2558 36.2589C25.2811 36.7853 19.6478 40.1558 18.9311 45.4867C18.5456 48.3548 18.7945 50.5983 21.4265 50.4374C24.5282 50.2467 28.1129 49.5773 31.2207 49.3191C34.8986 49.0152 39.1718 49.2744 41.081 45.4867C43.3456 40.994 40.882 38.3583 36.8929 36.8151C36.7564 36.7614 36.7403 36.5052 36.6861 36.4794L36.6841 36.4814Z" fill="#3C1E05" fill-opacity="0.73"/>
</g>
<defs>
<filter id="filter0_n_766_3942" x="0" y="1.53076" width="74.876" height="57.5547" filterUnits="userSpaceOnUse" color-interpolation-filters="sRGB">
<feFlood flood-opacity="0" result="BackgroundImageFix"/>
<feBlend mode="normal" in="SourceGraphic" in2="BackgroundImageFix" result="shape"/>
<feTurbulence type="fractalNoise" baseFrequency="0.40000000596046448 0.40000000596046448" stitchTiles="stitch" numOctaves="3" result="noise" seed="1996" />
<feColorMatrix in="noise" type="luminanceToAlpha" result="alphaNoise" />
<feComponentTransfer in="alphaNoise" result="coloredNoise1">
<feFuncA type="discrete" tableValues="1 1 1 1 1 1 1 1 1 1 1 1 1 1 1 1 1 1 1 1 1 1 1 1 1 1 1 1 1 1 1 1 1 1 1 1 1 1 1 1 1 1 1 1 1 1 1 1 1 1 1 0 0 0 0 0 0 0 0 0 0 0 0 0 0 0 0 0 0 0 0 0 0 0 0 0 0 0 0 0 0 0 0 0 0 0 0 0 0 0 0 0 0 0 0 0 0 0 0 0 "/>
</feComponentTransfer>
<feComposite operator="in" in2="shape" in="coloredNoise1" result="noise1Clipped" />
<feFlood flood-color="rgba(0, 0, 0, 0.25)" result="color1Flood" />
<feComposite operator="in" in2="noise1Clipped" in="color1Flood" result="color1" />
<feMerge result="effect1_noise_766_3942">
<feMergeNode in="shape" />
<feMergeNode in="color1" />
</feMerge>
</filter>
<filter id="filter1_n_766_3942" x="1.55371" y="0" width="76.1265" height="60.3101" filterUnits="userSpaceOnUse" color-interpolation-filters="sRGB">
<feFlood flood-opacity="0" result="BackgroundImageFix"/>
<feBlend mode="normal" in="SourceGraphic" in2="BackgroundImageFix" result="shape"/>
<feTurbulence type="fractalNoise" baseFrequency="0.40000000596046448 0.40000000596046448" stitchTiles="stitch" numOctaves="3" result="noise" seed="1996" />
<feColorMatrix in="noise" type="luminanceToAlpha" result="alphaNoise" />
<feComponentTransfer in="alphaNoise" result="coloredNoise1">
<feFuncA type="discrete" tableValues="1 1 1 1 1 1 1 1 1 1 1 1 1 1 1 1 1 1 1 1 1 1 1 1 1 1 1 1 1 1 1 1 1 1 1 1 1 1 1 1 1 1 1 1 1 1 1 1 1 1 1 0 0 0 0 0 0 0 0 0 0 0 0 0 0 0 0 0 0 0 0 0 0 0 0 0 0 0 0 0 0 0 0 0 0 0 0 0 0 0 0 0 0 0 0 0 0 0 0 0 "/>
</feComponentTransfer>
<feComposite operator="in" in2="shape" in="coloredNoise1" result="noise1Clipped" />
<feFlood flood-color="rgba(0, 0, 0, 0.25)" result="color1Flood" />
<feComposite operator="in" in2="noise1Clipped" in="color1Flood" result="color1" />
<feMerge result="effect1_noise_766_3942">
<feMergeNode in="shape" />
<feMergeNode in="color1" />
</feMerge>
</filter>
<filter id="filter2_n_766_3942" x="1.56445" y="1.53076" width="73.3125" height="57.5547" filterUnits="userSpaceOnUse" color-interpolation-filters="sRGB">
<feFlood flood-opacity="0" result="BackgroundImageFix"/>
<feBlend mode="normal" in="SourceGraphic" in2="BackgroundImageFix" result="shape"/>
<feTurbulence type="fractalNoise" baseFrequency="0.40000000596046448 0.40000000596046448" stitchTiles="stitch" numOctaves="3" result="noise" seed="1996" />
<feColorMatrix in="noise" type="luminanceToAlpha" result="alphaNoise" />
<feComponentTransfer in="alphaNoise" result="coloredNoise1">
<feFuncA type="discrete" tableValues="1 1 1 1 1 1 1 1 1 1 1 1 1 1 1 1 1 1 1 1 1 1 1 1 1 1 1 1 1 1 1 1 1 1 1 1 1 1 1 1 1 1 1 1 1 1 1 1 1 1 1 0 0 0 0 0 0 0 0 0 0 0 0 0 0 0 0 0 0 0 0 0 0 0 0 0 0 0 0 0 0 0 0 0 0 0 0 0 0 0 0 0 0 0 0 0 0 0 0 0 "/>
</feComponentTransfer>
<feComposite operator="in" in2="shape" in="coloredNoise1" result="noise1Clipped" />
<feFlood flood-color="rgba(30, 6, 2, 0.5)" result="color1Flood" />
<feComposite operator="in" in2="noise1Clipped" in="color1Flood" result="color1" />
<feMerge result="effect1_noise_766_3942">
<feMergeNode in="shape" />
<feMergeNode in="color1" />
</feMerge>
</filter>
</defs>
</svg>
