<svg width="1001" height="1000" viewBox="0 0 1001 1000" fill="none" xmlns="http://www.w3.org/2000/svg">
<path d="M500.5 0C224.081 0 0 223.646 0 499.525C0 775.404 224.083 999.05 500.5 999.05C776.917 999.05 1001 775.405 1001 499.525C1001 223.644 776.919 0 500.5 0ZM818.273 870.556C730.011 945.766 617.398 987.186 501.18 987.186C231.757 987.186 12.5705 768.422 12.5705 499.525C12.5705 230.631 231.757 11.8675 501.18 11.8675C770.602 11.8675 989.789 230.631 989.789 499.525C989.791 642.438 927.273 777.673 818.273 870.556Z" fill="#BDC9E7" fill-opacity="0.3"/>
<path d="M981.845 500.131C981.845 234.712 766.331 18.7773 501.429 18.7773C236.524 18.7773 21.0097 234.712 21.0097 500.131C21.0097 614.625 61.8138 725.565 135.906 812.513C227.409 919.896 360.636 981.484 501.429 981.484C766.329 981.486 981.845 765.55 981.845 500.131ZM501.426 805.192C481.509 806.338 461.409 805.128 441.572 801.958C421.703 798.698 402.11 793.325 383.284 785.91C364.419 778.62 346.42 769.095 329.423 758.055C312.477 746.913 296.717 733.972 282.296 719.686C268.026 705.249 255.128 689.442 243.99 672.477C232.977 655.443 223.459 637.415 216.187 618.511C208.787 599.646 203.424 580.013 200.173 560.105C197.012 540.227 195.809 520.088 196.959 500.133C199.196 540.062 208.234 579.176 224.017 615.259C232.003 633.246 241.388 650.591 252.538 666.746C263.558 682.975 276.073 698.182 289.973 711.998C317.595 739.813 350.552 762.24 386.516 778.098C422.532 793.913 461.576 802.964 501.426 805.192ZM501.426 768.567C483.907 769.701 466.202 768.776 448.722 766.038C431.192 763.25 413.897 758.565 397.274 752.071C380.619 745.698 364.741 737.31 349.731 727.603C334.775 717.795 320.872 706.382 308.146 693.79C295.566 681.048 284.193 667.105 274.386 652.131C264.704 637.09 256.319 621.185 249.965 604.494C243.481 587.836 238.805 570.507 236.024 552.941C233.294 535.425 232.377 517.683 233.514 500.131C235.774 535.261 243.835 569.587 257.795 601.24C264.865 617.011 273.115 632.233 282.934 646.396C292.624 660.632 303.613 673.976 315.823 686.096C340.061 710.523 368.966 730.228 400.509 744.253C432.101 758.244 466.363 766.315 501.426 768.567ZM501.426 731.94C471.123 734.191 440.038 729.355 411.263 718.227C396.82 712.773 383.061 705.521 370.04 697.148C357.074 688.673 345.029 678.788 333.993 667.89C323.104 656.844 313.259 644.762 304.78 631.783C296.429 618.732 289.179 604.952 283.74 590.477C272.63 561.644 267.809 530.495 270.068 500.133C272.35 530.467 279.432 560.001 291.568 587.223C297.722 600.779 304.838 613.878 313.327 626.05C321.686 638.293 331.149 649.776 341.668 660.2C362.522 681.235 387.377 698.222 414.495 710.412C441.669 722.576 471.151 729.666 501.426 731.94ZM330.596 500.131C330.596 405.6 407.079 328.968 501.426 328.968C595.772 328.968 672.255 405.602 672.255 500.131C672.255 594.662 595.772 671.294 501.426 671.294C407.079 671.294 330.596 594.662 330.596 500.131ZM589.875 54.6213C619.104 59.7686 647.883 67.8931 675.531 78.9828C703.236 89.9451 729.712 104.018 754.663 120.391C779.562 136.863 802.756 155.918 823.947 176.981C844.982 198.202 863.982 221.456 880.442 246.391C896.775 271.397 910.834 297.918 921.771 325.682C932.839 353.385 940.948 382.22 946.087 411.508C950.97 440.83 953.309 470.56 952.115 500.133C949.971 441.015 937.014 382.739 913.943 328.936C902.294 302.093 888.368 276.253 871.896 252.127C855.555 227.926 836.939 205.275 816.274 184.673C775.114 143.296 725.949 109.992 672.299 86.7985C618.601 63.6764 560.432 50.7015 501.429 48.5653C530.94 47.3776 560.611 49.7211 589.875 54.6213ZM501.426 85.1924C528.54 84.0146 555.819 86.0752 582.725 90.541C609.615 95.216 636.097 102.653 661.539 112.824C687.034 122.868 711.39 135.805 734.354 150.844C757.264 165.983 778.599 183.51 798.098 202.879C817.442 222.406 834.916 243.797 850.044 266.74C865.046 289.752 877.972 314.15 887.992 339.699C898.143 365.192 905.564 391.726 910.231 418.668C914.683 445.63 916.739 472.961 915.556 500.131C913.388 445.81 901.411 392.324 880.161 342.951C869.427 318.32 856.639 294.604 841.497 272.473C826.487 250.267 809.395 229.475 790.423 210.569C752.646 172.583 707.534 141.998 658.305 120.638C609.028 99.345 555.641 87.3525 501.426 85.1924ZM501.426 121.819C526.141 120.654 551.026 122.429 575.577 126.465C600.126 130.667 624.311 137.415 647.549 146.669C670.833 155.794 693.071 167.593 714.046 181.3C734.969 195.105 754.444 211.104 772.25 228.779C789.904 246.609 805.851 266.138 819.649 287.09C833.323 308.11 845.111 330.385 854.216 353.718C863.451 377.004 870.185 401.236 874.382 425.834C878.403 450.435 880.173 475.369 879.002 500.133C876.812 450.61 865.813 401.915 846.386 356.972C836.569 334.558 824.914 312.964 811.103 292.825C797.422 272.61 781.857 253.681 764.575 236.471C730.183 201.875 689.123 174.01 644.315 154.485C599.46 135.014 550.853 124 501.426 121.819ZM501.426 158.445C523.743 157.289 546.235 158.781 568.427 162.384C590.637 166.117 612.525 172.177 633.557 180.51C654.634 188.719 674.749 199.38 693.735 211.753C712.669 224.228 730.287 238.697 746.401 254.677C762.364 270.811 776.785 288.479 789.253 307.438C801.596 326.465 812.251 346.616 820.439 367.735C828.756 388.811 834.805 410.743 838.528 432.996C842.12 455.236 843.606 477.772 842.444 500.133C840.231 455.407 830.213 411.502 812.609 370.989C803.707 350.789 793.187 331.319 780.707 313.171C768.356 294.949 754.316 277.881 738.726 262.369C707.719 231.163 670.71 206.018 630.325 188.326C589.889 170.682 546.064 160.651 501.426 158.445ZM501.426 195.072C521.342 193.928 541.442 195.135 561.279 198.306C581.148 201.566 600.741 206.939 619.569 214.352C638.434 221.641 656.432 231.167 673.429 242.207C690.374 253.348 706.134 266.289 720.553 280.575C734.825 295.013 747.721 310.82 758.859 327.784C769.87 344.82 779.392 362.847 786.664 381.752C794.064 400.618 799.426 420.251 802.678 440.158C805.839 460.036 807.042 480.175 805.892 500.131C803.657 460.204 794.615 421.088 778.835 385.005C770.85 367.02 761.465 349.673 750.315 333.517C739.294 317.288 726.78 302.083 712.88 288.265C685.256 260.45 652.301 238.024 616.335 222.165C580.321 206.351 541.277 197.3 501.426 195.072ZM501.426 231.699C518.944 230.565 536.649 231.489 554.131 234.228C571.661 237.017 588.955 241.7 605.578 248.195C622.233 254.568 638.112 262.955 653.12 272.662C668.074 282.471 681.979 293.883 694.706 306.475C707.285 319.217 718.656 333.163 728.465 348.134C738.147 363.178 746.532 379.08 752.886 395.771C759.37 412.427 764.046 429.758 766.827 447.324C769.555 464.841 770.476 482.582 769.337 500.133C767.077 465.002 759.016 430.679 745.056 399.024C737.986 383.253 729.738 368.03 719.917 353.867C710.227 339.631 699.238 326.288 687.029 314.168C662.79 289.742 633.885 270.036 602.344 256.011C570.752 242.019 536.488 233.949 501.426 231.699ZM501.426 268.324C531.728 266.072 562.813 270.908 591.588 282.036C606.031 287.49 619.792 294.742 632.812 303.116C645.777 311.591 657.822 321.475 668.856 332.371C679.745 343.415 689.59 355.5 698.069 368.48C706.42 381.531 713.67 395.311 719.109 409.787C730.221 438.618 735.04 469.767 732.781 500.131C730.498 469.797 723.417 440.264 711.281 413.041C705.127 399.484 698.013 386.385 689.522 374.216C681.161 361.972 671.698 350.49 661.181 340.066C640.327 319.03 615.472 302.043 588.352 289.854C561.184 277.688 531.7 270.598 501.426 268.324ZM309.86 441.904C315.592 423.076 323.663 404.928 334.305 388.247C345.338 371.844 358.58 356.986 373.59 344.057C388.916 331.499 405.971 321.158 424.119 313.135C442.427 305.409 461.868 300.696 481.592 298.365C491.505 297.938 501.426 296.864 511.346 297.779L518.788 298.136C520.028 298.213 521.273 298.217 522.506 298.355L526.191 298.905L540.935 301.121C560.372 305.27 579.334 311.738 596.972 321.029C614.42 330.624 630.544 342.523 644.872 356.404C658.739 370.746 670.604 386.914 680.185 404.394C689.457 422.068 695.913 441.067 700.054 460.542L702.265 475.317L702.814 479.009C702.951 480.245 702.956 481.492 703.033 482.734L703.391 490.191C704.302 500.133 703.23 510.071 702.804 520.005C700.475 539.767 695.789 559.254 688.071 577.594C680.063 595.778 669.741 612.866 657.205 628.224C644.299 643.265 629.466 656.527 613.1 667.587C596.449 678.25 578.336 686.335 559.543 692.076C540.605 697.495 520.978 699.701 501.427 699.768L516.056 698.754C518.482 698.513 520.941 698.577 523.339 698.087L530.553 696.845L537.763 695.633L541.364 695.031L544.893 694.077L558.984 690.235C577.435 684.027 595.064 675.552 611.121 664.63C626.982 653.442 641.31 640.23 653.667 625.312C665.664 610.09 675.431 593.255 682.921 575.455L687.772 561.809C688.166 560.669 688.604 559.545 688.964 558.393L689.831 554.878L691.569 547.854L693.335 540.841C693.916 538.501 694.107 536.082 694.513 533.709C695.187 528.934 696.022 524.179 696.569 519.395C696.911 509.758 697.922 500.129 696.969 490.502L696.587 483.282C696.505 482.08 696.498 480.871 696.358 479.677L695.801 476.106L693.586 461.824C689.465 443.01 683.13 424.686 674.081 407.668C664.731 390.835 653.174 375.318 639.755 361.53C626.005 348.072 610.508 336.501 593.71 327.131C576.723 318.065 558.435 311.716 539.656 307.587L525.402 305.367L521.838 304.809C520.644 304.67 519.439 304.662 518.24 304.58L511.034 304.198C501.426 303.245 491.813 304.257 482.195 304.6C477.42 305.148 472.674 305.985 467.909 306.661C465.54 307.067 463.125 307.261 460.79 307.84L453.788 309.602L446.777 311.344L443.27 312.213C442.123 312.573 440.999 313.012 439.862 313.408L426.244 318.269C408.475 325.775 391.675 335.564 376.482 347.584C361.593 359.967 348.41 374.327 337.239 390.216C326.34 406.307 317.881 423.971 311.688 442.458L307.855 456.577L306.903 460.112L306.302 463.723L305.093 470.947L303.853 478.174C303.364 480.578 303.428 483.041 303.187 485.472L302.177 500.129C302.248 480.542 304.45 460.877 309.86 441.904ZM326.825 922.474C271.11 900.733 220.286 866.645 177.834 824.344C135.554 781.866 101.566 730.893 79.8909 675.07C57.9932 619.41 47.7941 559.284 50.7376 500.151C50.7376 500.145 50.7376 500.137 50.7376 500.129C53.7269 559.23 66.8794 617.252 90.1235 670.817C92.8781 677.573 96.2891 684.041 99.3301 690.659C102.55 697.198 106.011 703.614 109.358 710.079C113.049 716.36 116.536 722.757 120.385 728.937L126.246 738.147L129.175 742.75L132.3 747.224C136.495 753.169 140.486 759.25 144.981 764.976L151.538 773.69L158.458 782.12C162.967 787.829 167.905 793.167 172.792 798.548C175.244 801.228 177.641 803.962 180.137 806.603L187.864 814.291C208.295 834.96 230.803 853.548 254.797 869.965C278.718 886.513 304.347 900.584 331.052 912.257C384.543 935.529 442.445 948.53 501.426 951.692C442.407 954.448 382.413 944.393 326.825 922.474ZM501.426 915.071C474.311 916.249 447.031 914.188 420.126 909.72C393.238 905.045 366.756 897.608 341.312 887.437C315.817 877.394 291.461 864.457 268.499 849.417C245.587 834.278 224.254 816.752 204.753 797.382C185.409 777.857 167.935 756.465 152.807 733.52C137.803 710.507 124.879 686.11 114.859 660.562C104.708 635.069 97.2875 608.534 92.6196 581.591C88.1664 554.629 86.1119 527.298 87.2953 500.129C89.4632 554.45 101.44 607.936 122.69 657.308C133.424 681.937 146.214 705.653 161.354 727.787C176.364 749.994 193.456 770.785 212.43 789.69C250.205 827.676 295.319 858.261 344.548 879.62C393.825 900.918 447.21 912.913 501.426 915.071ZM501.426 878.444C476.71 879.612 451.825 877.834 427.276 873.799C402.727 869.594 378.542 862.847 355.304 853.594C332.018 844.469 309.782 832.67 288.808 818.962C267.884 805.154 248.407 789.158 230.603 771.482C212.949 753.653 197 734.122 183.204 713.172C169.53 692.152 157.74 669.877 148.637 646.544C139.402 623.26 132.666 599.026 128.471 574.427C124.45 549.826 122.678 524.893 123.849 500.129C126.039 549.651 137.038 598.348 156.465 643.291C166.282 665.706 177.937 687.298 191.748 707.44C205.429 727.655 220.994 746.584 238.278 763.792C272.67 798.388 313.73 826.253 358.536 845.779C403.393 865.25 452 876.262 501.426 878.444ZM434.424 837.879C412.216 834.147 390.326 828.087 369.294 819.755C348.22 811.547 328.102 800.883 309.116 788.51C290.182 776.038 272.564 761.568 256.452 745.586C240.489 729.453 226.068 711.785 213.6 692.828C201.257 673.801 190.602 653.65 182.414 632.53C174.096 611.455 168.048 589.522 164.323 567.269C160.731 545.032 159.245 522.494 160.407 500.133C162.62 544.858 172.641 588.765 190.244 629.278C199.145 649.477 209.666 668.948 222.146 687.096C234.495 705.318 248.536 722.386 264.127 737.898C295.134 769.105 332.143 794.249 372.53 811.941C412.964 829.585 456.789 839.617 501.427 841.821C479.11 842.973 456.618 841.48 434.424 837.879Z" fill="#BDC9E7" fill-opacity="0.3"/>
<path d="M501.181 488.638C495.157 488.638 490.274 493.512 490.274 499.525C490.274 505.537 495.157 510.412 501.181 510.412C507.205 510.412 512.089 505.537 512.089 499.525C512.089 493.512 507.205 488.638 501.181 488.638Z" fill="#BDC9E7" fill-opacity="0.3"/>
<path d="M501.188 476.105C488.229 476.105 477.725 486.591 477.725 499.525C477.725 512.458 488.229 522.942 501.188 522.942C514.147 522.942 524.652 512.458 524.652 499.525C524.652 486.591 514.147 476.105 501.188 476.105ZM501.188 519.322C490.251 519.322 481.352 510.44 481.352 499.525C481.352 488.608 490.251 479.727 501.188 479.727C512.126 479.727 521.025 488.608 521.025 499.525C521.025 510.44 512.126 519.322 501.188 519.322Z" fill="#BDC9E7" fill-opacity="0.3"/>
<path d="M501.182 341.729C414.002 341.729 343.08 412.516 343.08 499.522C343.08 586.532 414.002 657.32 501.182 657.32C588.36 657.32 659.284 586.532 659.284 499.522C659.284 412.516 588.36 341.729 501.182 341.729ZM501.182 650.079C418.004 650.079 350.335 582.54 350.335 499.522C350.335 416.508 418.002 348.971 501.182 348.971C584.36 348.971 652.029 416.508 652.029 499.522C652.029 582.54 584.36 650.079 501.182 650.079Z" fill="#BDC9E7" fill-opacity="0.3"/>
</svg>
